<?xml version="1.0" encoding="UTF-8"?>
<svg id="Layer_1" xmlns="http://www.w3.org/2000/svg" version="1.1" viewBox="0 0 3300 2200">
  <!-- Generator: Adobe Illustrator 29.1.0, SVG Export Plug-In . SVG Version: 2.1.0 Build 142)  -->
  <defs>
    <style>
      .st0 {
        stroke: #00aeef;
      }

      .st0, .st1, .st2, .st3 {
        fill: none;
        stroke-width: .5px;
      }

      .st1, .st2 {
        stroke: #000;
      }

      .st4 {
        fill: #fff;
      }

      .st5 {
        font-family: Helvetica-Bold, Helvetica;
        font-weight: 700;
      }

      .st5, .st6 {
        font-size: 13px;
        isolation: isolate;
      }

      .st2 {
        stroke-miterlimit: 10;
      }

      .st6 {
        font-family: Helvetica, Helvetica;
      }

      .st7 {
        fill: #27aae1;
      }

      .st3 {
        stroke: #27aae1;
      }
    </style>
  </defs>
  <g id="Notes">
    <rect id="artboard" class="st4" width="3300" height="2200"/>
    <line class="st1" x1="263" y1="292" x2="3036" y2="292"/>
    <text class="st5" transform="translate(263 322)"><tspan x="0" y="0">Weight/Scale Variations</tspan></text>
    <text class="st6" transform="translate(534.1 322)"><tspan x="0" y="0">Ultralight</tspan></text>
    <text class="st6" transform="translate(843.8 322)"><tspan x="0" y="0">Thin</tspan></text>
    <text class="st6" transform="translate(1139 322)"><tspan x="0" y="0">Light</tspan></text>
    <text class="st6" transform="translate(1427.1 322)"><tspan x="0" y="0">Regular</tspan></text>
    <text class="st6" transform="translate(1723.4 322)"><tspan x="0" y="0">Medium</tspan></text>
    <text class="st6" transform="translate(2016.2 322)"><tspan x="0" y="0">Semibold</tspan></text>
    <text class="st6" transform="translate(2327 322)"><tspan x="0" y="0">Bold</tspan></text>
    <text class="st6" transform="translate(2618.3 322)"><tspan x="0" y="0">Heavy</tspan></text>
    <text class="st6" transform="translate(2917.5 322)"><tspan x="0" y="0">Black</tspan></text>
    <line class="st1" x1="263" y1="1903" x2="3036" y2="1903"/>
    <path d="M272.2,1933.8c4.4,0,7.9-3.5,7.9-7.9s-3.5-7.9-7.9-7.9-7.9,3.5-7.9,7.9,3.5,7.9,7.9,7.9ZM272.2,1932.3c-3.5,0-6.4-2.9-6.4-6.4s2.9-6.4,6.4-6.4,6.4,2.9,6.4,6.4-2.9,6.4-6.4,6.4ZM268.7,1925.9c0,.4.3.7.8.7h2.1v2.1c0,.4.3.7.7.7s.7-.3.7-.7v-2.1h2.1c.4,0,.7-.3.7-.7s-.3-.7-.7-.7h-2.1v-2.1c0-.4-.3-.8-.7-.8s-.7.3-.7.8v2.1h-2.1c-.4,0-.8.3-.8.7Z"/>
    <path d="M293.2,1935.9c5.5,0,10-4.5,10-10s-4.5-10-10-10-10,4.5-10,10,4.5,10,10,10ZM293.2,1934.3c-4.6,0-8.3-3.7-8.3-8.3s3.7-8.3,8.3-8.3,8.3,3.7,8.3,8.3-3.7,8.3-8.3,8.3ZM288.7,1925.9c0,.5.3.8.8.8h2.9v2.9c0,.5.3.8.8.8s.8-.3.8-.8v-2.9h2.9c.5,0,.8-.3.8-.8s-.3-.8-.8-.8h-2.9v-2.9c0-.5-.3-.8-.8-.8s-.8.3-.8.8v2.9h-2.9c-.5,0-.8.3-.8.8Z"/>
    <path d="M319.9,1938.7c7,0,12.7-5.7,12.7-12.7s-5.7-12.7-12.7-12.7-12.7,5.7-12.7,12.7,5.7,12.7,12.7,12.7ZM319.9,1936.8c-6,0-10.9-4.9-10.9-10.9s4.9-10.9,10.9-10.9,10.9,4.9,10.9,10.9-4.9,10.9-10.9,10.9ZM314.1,1925.9c0,.5.4.9.9.9h3.9v4c0,.5.4.9.9.9s.9-.4.9-.9v-4h4c.5,0,.9-.4.9-.9s-.4-.9-.9-.9h-4v-3.9c0-.5-.4-.9-.9-.9s-.9.4-.9.9v3.9h-3.9c-.5,0-.9.4-.9.9Z"/>
    <text class="st5" transform="translate(263 1953)"><tspan x="0" y="0">Design Variations</tspan></text>
    <text class="st6" transform="translate(263 1971)"><tspan x="0" y="0">Symbols are supported in up to nine weights and three scales.</tspan></text>
    <text class="st6" transform="translate(263 1989)"><tspan x="0" y="0">For optimal layout with text and other symbols, vertically align</tspan></text>
    <text class="st6" transform="translate(263 2007)"><tspan x="0" y="0">symbols with the adjacent text.</tspan></text>
    <line class="st0" x1="776" y1="1919" x2="776" y2="1933"/>
    <path d="M779.3,1933.2c.5,0,.8-.2,1-.7l1.3-3.4h5.8l1.3,3.4c.2.5.4.7.9.7s.8-.3.8-.8,0-.3-.1-.5l-4.6-12.2c-.2-.6-.6-.9-1.3-.9s-1,.3-1.2.9l-4.6,12.2c0,.2-.1.4-.1.5,0,.5.3.8.8.8ZM782,1927.5l2.4-6.6h0l2.4,6.6h-4.8Z"/>
    <line class="st0" x1="792.8" y1="1919" x2="792.8" y2="1933"/>
    <text class="st5" transform="translate(776 1953)"><tspan x="0" y="0">Margins</tspan></text>
    <text class="st6" transform="translate(776 1971)"><tspan x="0" y="0">Leading and trailing margins on the left and right side of each symbol</tspan></text>
    <text class="st6" transform="translate(776 1989)"><tspan x="0" y="0">can be adjusted by modifying the x-location of the margin guidelines.</tspan></text>
    <text class="st6" transform="translate(776 2007)"><tspan x="0" y="0">Modifications are automatically applied proportionally to all</tspan></text>
    <text class="st6" transform="translate(776 2025)"><tspan x="0" y="0">scales and weights.</tspan></text>
    <path d="M1291.8,1934.9l1.7,1.7c.9.9,1.8.8,2.8-.2l10.7-11.8-1-1-10.6,11.7c-.4.4-.7.5-1.2,0l-1.2-1.2c-.5-.5-.4-.8,0-1.2l11.5-10.8-1-1-11.6,10.9c-1,.9-1.1,1.9-.2,2.8h0ZM1298.3,1916.7c-.4.4-.4,1-.2,1.4.2.4.7.6,1.3.4,1.5-.3,3-.4,4.4.5l-.6,1.5c-.3.8-.2,1.4.4,2l2.3,2.3c.5.5.9.5,1.5.4l1.1-.2.7.7v.6c0,.5,0,.9.5,1.4l.8.7c.5.5,1.1.5,1.6,0l2.9-2.9c.5-.5.4-1.1,0-1.5l-.8-.8c-.5-.5-.8-.6-1.3-.6h-.6s-.6-.6-.6-.6l.2-1.1c.1-.6,0-1-.6-1.6l-2.2-2.2c-3.3-3.3-7.8-3.2-10.7-.4h0ZM1299.8,1917c2.4-1.8,5.7-1.5,7.9.8l2.4,2.4c.2.2.3.4.2.8l-.3,1.5,1.5,1.5h1c.3,0,.3,0,.5.1l.6.6-2.4,2.4-.6-.6c-.2-.2-.2-.3-.2-.5v-1c0,0-1.4-1.5-1.4-1.5l-1.5.3c-.3,0-.5,0-.7-.2l-2-2c-.3-.2-.3-.4-.1-.8l.9-2.1c-1.6-1.5-3.6-2.1-5.6-1.5-.2,0-.2,0,0-.2h0Z"/>
    <text class="st5" transform="translate(1289 1953)"><tspan x="0" y="0">Exporting</tspan></text>
    <text class="st6" transform="translate(1289 1971)"><tspan x="0" y="0">Symbols should be outlined when exporting to ensure the</tspan></text>
    <text class="st6" transform="translate(1289 1989)"><tspan x="0" y="0">design is preserved when submitting to Xcode.</tspan></text>
    <text id="template-version" class="st6" transform="translate(2952.4 1933)"><tspan x="0" y="0">Template v.6.0</tspan></text>
    <text class="st6" transform="translate(2865.5 1951)"><tspan x="0" y="0">Requires Xcode 16 or greater</tspan></text>
    <text id="descriptive-name" class="st6" transform="translate(2865.5 1969)"><tspan x="0" y="0">Generated from custom.circle</tspan></text>
    <text class="st6" transform="translate(2901.6 1987)"><tspan x="0" y="0">Typeset at 100.0 points</tspan></text>
    <text class="st6" transform="translate(263 726)"><tspan x="0" y="0">Small</tspan></text>
    <text class="st6" transform="translate(263 1156)"><tspan x="0" y="0">Medium</tspan></text>
    <text class="st6" transform="translate(263 1586)"><tspan x="0" y="0">Large</tspan></text>
  </g>
  <g id="Guides">
    <g id="H-reference">
      <path class="st7" d="M340,696h2.6l25.7-67.1h.7v-3.3h-1.9l-27.1,70.5ZM350.7,671.5h35.3l-.8-2.2h-33.8l-.8,2.2ZM394.1,696h2.6l-27.1-70.5h-1.2v3.3l25.7,67.1Z"/>
    </g>
    <line id="Baseline-S" class="st3" x1="263" y1="696" x2="3036" y2="696"/>
    <line id="Capline-S" class="st3" x1="263" y1="625.5" x2="3036" y2="625.5"/>
    <g id="H-reference1" data-name="H-reference">
      <path class="st7" d="M340,1126h2.6l25.7-67.1h.7v-3.3h-1.9l-27.1,70.5ZM350.7,1101.5h35.3l-.8-2.2h-33.8l-.8,2.2ZM394.1,1126h2.6l-27.1-70.5h-1.2v3.3l25.7,67.1Z"/>
    </g>
    <line id="Baseline-M" class="st3" x1="263" y1="1126" x2="3036" y2="1126"/>
    <line id="Capline-M" class="st3" x1="263" y1="1055.5" x2="3036" y2="1055.5"/>
    <g id="H-reference2" data-name="H-reference">
      <path class="st7" d="M340,1556h2.6l25.7-67.1h.7v-3.3h-1.9l-27.1,70.5ZM350.7,1531.5h35.3l-.8-2.2h-33.8l-.8,2.2ZM394.1,1556h2.6l-27.1-70.5h-1.2v3.3l25.7,67.1Z"/>
    </g>
    <line id="Baseline-L" class="st3" x1="263" y1="1556" x2="3036" y2="1556"/>
    <line id="Capline-L" class="st3" x1="263" y1="1485.5" x2="3036" y2="1485.5"/>
    <line id="right-margin-Black-S" class="st0" x1="2982.2" y1="600.8" x2="2982.2" y2="720.1"/>
    <line id="left-margin-Black-S" class="st0" x1="2884.6" y1="600.8" x2="2884.6" y2="720.1"/>
    <line id="right-margin-Regular-S" class="st0" x1="1496.1" y1="600.8" x2="1496.1" y2="720.1"/>
    <line id="left-margin-Regular-S" class="st0" x1="1403.6" y1="600.8" x2="1403.6" y2="720.1"/>
    <line id="right-margin-Ultralight-S" class="st0" x1="603.8" y1="600.8" x2="603.8" y2="720.1"/>
    <line id="left-margin-Ultralight-S" class="st0" x1="515.6" y1="600.8" x2="515.6" y2="720.1"/>
  </g>
  <g id="Symbols">
    <g id="Black-S">
      <path class="st2" d="M2934.2,614c-.2-.5.4-.7.5-.9.6-1.9-4-2-3.3,0s.6.4.6.8c0,21.7-.3,43.3-.4,65,0,7.9.2,15.8-.1,23.6,0,.8.1,2,0,2.7s-.7.3-1.1.3c-1.4.2-5.4,1.1-3.9,3.2s10.1,2.2,12.2.4-1.1-3.2-2.7-3.5-2.1-.2-2.2-.4l.4-72.1c.2-.7,3.3-1.3,4.1-1.3,5.8-.4,11.6,2.1,17.8,1.7s8.9-1.8,10.2-4.2-1.5-1.3-2.5-1.4c-6.5-.7-9.1-5.4-13.8-8.9s-10.1-5.3-15.8-5.1Z"/>
    </g>
    <g id="Regular-S">
      <path class="st2" d="M1451,614.2c-.2-.5.4-.6.5-.9.6-1.7-3.7-1.8-3.1,0s.6.4.5.7c0,20.3-.3,40.6-.4,60.8,0,7.4.2,14.7-.1,22.1s.1,1.9,0,2.5-.6.2-1,.3c-1.3.2-5.1,1.1-3.6,3s9.4,2.1,11.5.4-1-3-2.6-3.3-2-.2-2-.4l.4-67.5c.2-.7,3.1-1.2,3.8-1.2,5.5-.4,10.9,1.9,16.6,1.6s8.3-1.7,9.6-4-1.4-1.2-2.3-1.3c-6.1-.7-8.5-5-12.9-8.3s-9.5-4.9-14.8-4.8Z"/>
    </g>
    <g id="Ultralight-S">
      <path class="st2" d="M551.6,612.8c-.1-.5.3-.7.4-.9.5-1.8-3.4-1.9-2.8,0s.5.4.5.8c0,21.3-.2,42.6-.3,63.9s.1,15.5-.1,23.2.1,2,0,2.7-.6.2-.9.3c-1.2.2-4.6,1.1-3.3,3.2s8.5,2.2,10.3.4-.9-3.1-2.3-3.5-1.8-.2-1.8-.4l.3-70.9c.2-.7,2.8-1.2,3.5-1.3,4.9-.4,9.8,2,15,1.7s7.5-1.8,8.6-4.2-1.3-1.3-2.1-1.4c-5.5-.7-7.6-5.3-11.6-8.7s-8.6-5.2-13.4-5Z"/>
    </g>
  </g>
</svg>